%TF.GenerationSoftware,KiCad,Pcbnew,(6.0.6-1)-1*%
%TF.CreationDate,2022-07-21T21:53:33-04:00*%
%TF.ProjectId,iGEM,6947454d-2e6b-4696-9361-645f70636258,rev?*%
%TF.SameCoordinates,Original*%
%TF.FileFunction,Paste,Top*%
%TF.FilePolarity,Positive*%
%FSLAX46Y46*%
G04 Gerber Fmt 4.6, Leading zero omitted, Abs format (unit mm)*
G04 Created by KiCad (PCBNEW (6.0.6-1)-1) date 2022-07-21 21:53:33*
%MOMM*%
%LPD*%
G01*
G04 APERTURE LIST*
G04 Aperture macros list*
%AMRoundRect*
0 Rectangle with rounded corners*
0 $1 Rounding radius*
0 $2 $3 $4 $5 $6 $7 $8 $9 X,Y pos of 4 corners*
0 Add a 4 corners polygon primitive as box body*
4,1,4,$2,$3,$4,$5,$6,$7,$8,$9,$2,$3,0*
0 Add four circle primitives for the rounded corners*
1,1,$1+$1,$2,$3*
1,1,$1+$1,$4,$5*
1,1,$1+$1,$6,$7*
1,1,$1+$1,$8,$9*
0 Add four rect primitives between the rounded corners*
20,1,$1+$1,$2,$3,$4,$5,0*
20,1,$1+$1,$4,$5,$6,$7,0*
20,1,$1+$1,$6,$7,$8,$9,0*
20,1,$1+$1,$8,$9,$2,$3,0*%
G04 Aperture macros list end*
%ADD10RoundRect,0.250000X-0.475000X0.337500X-0.475000X-0.337500X0.475000X-0.337500X0.475000X0.337500X0*%
%ADD11R,3.050000X2.750000*%
%ADD12R,2.200000X1.200000*%
%ADD13RoundRect,0.150000X-0.150000X0.825000X-0.150000X-0.825000X0.150000X-0.825000X0.150000X0.825000X0*%
%ADD14R,1.050000X0.600000*%
%ADD15RoundRect,0.150000X0.825000X0.150000X-0.825000X0.150000X-0.825000X-0.150000X0.825000X-0.150000X0*%
%ADD16R,1.400000X0.300000*%
%ADD17RoundRect,0.250000X-0.325000X-0.450000X0.325000X-0.450000X0.325000X0.450000X-0.325000X0.450000X0*%
%ADD18RoundRect,0.250000X0.337500X0.475000X-0.337500X0.475000X-0.337500X-0.475000X0.337500X-0.475000X0*%
%ADD19RoundRect,0.150000X0.150000X-0.512500X0.150000X0.512500X-0.150000X0.512500X-0.150000X-0.512500X0*%
%ADD20RoundRect,0.250000X-0.350000X-0.450000X0.350000X-0.450000X0.350000X0.450000X-0.350000X0.450000X0*%
%ADD21RoundRect,0.250000X0.475000X-0.337500X0.475000X0.337500X-0.475000X0.337500X-0.475000X-0.337500X0*%
%ADD22RoundRect,0.250000X0.350000X0.450000X-0.350000X0.450000X-0.350000X-0.450000X0.350000X-0.450000X0*%
%ADD23R,4.550000X5.250000*%
%ADD24R,4.600000X1.100000*%
%ADD25RoundRect,0.250001X-0.924999X0.499999X-0.924999X-0.499999X0.924999X-0.499999X0.924999X0.499999X0*%
%ADD26RoundRect,0.250000X0.450000X-0.350000X0.450000X0.350000X-0.450000X0.350000X-0.450000X-0.350000X0*%
%ADD27RoundRect,0.250000X-0.337500X-0.475000X0.337500X-0.475000X0.337500X0.475000X-0.337500X0.475000X0*%
%ADD28RoundRect,0.100000X0.100000X-0.712500X0.100000X0.712500X-0.100000X0.712500X-0.100000X-0.712500X0*%
G04 APERTURE END LIST*
D10*
%TO.C,C4*%
X109600000Y-118112501D03*
X109600000Y-120187501D03*
%TD*%
%TO.C,C11*%
X99000000Y-81712500D03*
X99000000Y-83787500D03*
%TD*%
D11*
%TO.C,Q2*%
X81925000Y-104225000D03*
X81925000Y-107275000D03*
X85275000Y-107275000D03*
X85275000Y-104225000D03*
D12*
X77300000Y-103470000D03*
X77300000Y-108030000D03*
%TD*%
D13*
%TO.C,U4*%
X72770000Y-103390000D03*
X71500000Y-103390000D03*
X70230000Y-103390000D03*
X68960000Y-103390000D03*
X68960000Y-108340000D03*
X70230000Y-108340000D03*
X71500000Y-108340000D03*
X72770000Y-108340000D03*
%TD*%
D14*
%TO.C,U3*%
X113200000Y-75762500D03*
X113200000Y-74812500D03*
X113200000Y-73862500D03*
X110500000Y-73862500D03*
X110500000Y-75762500D03*
%TD*%
D15*
%TO.C,IC1*%
X112475000Y-130655000D03*
X112475000Y-129385000D03*
X112475000Y-128115000D03*
X112475000Y-126845000D03*
X107525000Y-126845000D03*
X107525000Y-128115000D03*
X107525000Y-129385000D03*
X107525000Y-130655000D03*
%TD*%
D16*
%TO.C,IC2*%
X105950000Y-81250000D03*
X105950000Y-80750000D03*
X105950000Y-80250000D03*
X105950000Y-79750000D03*
X105950000Y-79250000D03*
X101550000Y-79250000D03*
X101550000Y-79750000D03*
X101550000Y-80250000D03*
X101550000Y-80750000D03*
X101550000Y-81250000D03*
%TD*%
D10*
%TO.C,C2*%
X107500000Y-132712500D03*
X107500000Y-134787500D03*
%TD*%
D13*
%TO.C,U2*%
X107905000Y-59025000D03*
X106635000Y-59025000D03*
X105365000Y-59025000D03*
X104095000Y-59025000D03*
X104095000Y-63975000D03*
X105365000Y-63975000D03*
X106635000Y-63975000D03*
X107905000Y-63975000D03*
%TD*%
D17*
%TO.C,D6*%
X112725000Y-49250000D03*
X114775000Y-49250000D03*
%TD*%
D18*
%TO.C,C8*%
X108037500Y-67750000D03*
X105962500Y-67750000D03*
%TD*%
D13*
%TO.C,U5*%
X156905000Y-103275000D03*
X155635000Y-103275000D03*
X154365000Y-103275000D03*
X153095000Y-103275000D03*
X153095000Y-108225000D03*
X154365000Y-108225000D03*
X155635000Y-108225000D03*
X156905000Y-108225000D03*
%TD*%
D10*
%TO.C,C5*%
X70250000Y-110512500D03*
X70250000Y-112587500D03*
%TD*%
D19*
%TO.C,U1*%
X111500000Y-118337500D03*
X112450000Y-118337500D03*
X113400000Y-118337500D03*
X113400000Y-116062500D03*
X112450000Y-116062500D03*
X111500000Y-116062500D03*
%TD*%
D20*
%TO.C,R3*%
X110500000Y-60500000D03*
X112500000Y-60500000D03*
%TD*%
%TO.C,R9*%
X117500000Y-56250000D03*
X119500000Y-56250000D03*
%TD*%
D21*
%TO.C,C3*%
X108250000Y-75787500D03*
X108250000Y-73712500D03*
%TD*%
D20*
%TO.C,R4*%
X110500000Y-62500000D03*
X112500000Y-62500000D03*
%TD*%
%TO.C,R1*%
X97000000Y-79250000D03*
X99000000Y-79250000D03*
%TD*%
D11*
%TO.C,Q5*%
X138325000Y-104225000D03*
X141675000Y-104225000D03*
X138325000Y-107275000D03*
X141675000Y-107275000D03*
D12*
X146300000Y-108030000D03*
X146300000Y-103470000D03*
%TD*%
D22*
%TO.C,R10*%
X124000000Y-56250000D03*
X122000000Y-56250000D03*
%TD*%
D23*
%TO.C,Q8*%
X138325000Y-112975000D03*
X143175000Y-118525000D03*
X143175000Y-112975000D03*
X138325000Y-118525000D03*
D24*
X149900000Y-118290000D03*
X149900000Y-113210000D03*
%TD*%
D25*
%TO.C,C7*%
X106750000Y-118125001D03*
X106750000Y-121375001D03*
%TD*%
D26*
%TO.C,R7*%
X108250000Y-53500000D03*
X108250000Y-51500000D03*
%TD*%
D27*
%TO.C,C1*%
X107962500Y-56750000D03*
X110037500Y-56750000D03*
%TD*%
D20*
%TO.C,R5*%
X99250000Y-77250000D03*
X101250000Y-77250000D03*
%TD*%
D23*
%TO.C,Q3*%
X85675000Y-118775000D03*
X80825000Y-113225000D03*
X80825000Y-118775000D03*
X85675000Y-113225000D03*
D24*
X74100000Y-113460000D03*
X74100000Y-118540000D03*
%TD*%
D28*
%TO.C,IC3*%
X110025000Y-71612500D03*
X110675000Y-71612500D03*
X111325000Y-71612500D03*
X111975000Y-71612500D03*
X111975000Y-67387500D03*
X111325000Y-67387500D03*
X110675000Y-67387500D03*
X110025000Y-67387500D03*
%TD*%
D17*
%TO.C,D8*%
X108225000Y-49250000D03*
X110275000Y-49250000D03*
%TD*%
D10*
%TO.C,C6*%
X154000000Y-110462500D03*
X154000000Y-112537500D03*
%TD*%
M02*
