%TF.GenerationSoftware,KiCad,Pcbnew,(6.0.6-1)-1*%
%TF.CreationDate,2022-07-21T21:53:33-04:00*%
%TF.ProjectId,iGEM,6947454d-2e6b-4696-9361-645f70636258,rev?*%
%TF.SameCoordinates,Original*%
%TF.FileFunction,Soldermask,Top*%
%TF.FilePolarity,Negative*%
%FSLAX46Y46*%
G04 Gerber Fmt 4.6, Leading zero omitted, Abs format (unit mm)*
G04 Created by KiCad (PCBNEW (6.0.6-1)-1) date 2022-07-21 21:53:33*
%MOMM*%
%LPD*%
G01*
G04 APERTURE LIST*
G04 Aperture macros list*
%AMRoundRect*
0 Rectangle with rounded corners*
0 $1 Rounding radius*
0 $2 $3 $4 $5 $6 $7 $8 $9 X,Y pos of 4 corners*
0 Add a 4 corners polygon primitive as box body*
4,1,4,$2,$3,$4,$5,$6,$7,$8,$9,$2,$3,0*
0 Add four circle primitives for the rounded corners*
1,1,$1+$1,$2,$3*
1,1,$1+$1,$4,$5*
1,1,$1+$1,$6,$7*
1,1,$1+$1,$8,$9*
0 Add four rect primitives between the rounded corners*
20,1,$1+$1,$2,$3,$4,$5,0*
20,1,$1+$1,$4,$5,$6,$7,0*
20,1,$1+$1,$6,$7,$8,$9,0*
20,1,$1+$1,$8,$9,$2,$3,0*%
G04 Aperture macros list end*
%ADD10R,3.200000X3.200000*%
%ADD11O,3.200000X3.200000*%
%ADD12C,2.781000*%
%ADD13O,3.500000X3.500000*%
%ADD14R,2.000000X1.905000*%
%ADD15O,2.000000X1.905000*%
%ADD16C,5.600000*%
%ADD17RoundRect,0.250000X-0.475000X0.337500X-0.475000X-0.337500X0.475000X-0.337500X0.475000X0.337500X0*%
%ADD18R,2.200000X1.200000*%
%ADD19R,6.400000X5.800000*%
%ADD20RoundRect,0.150000X-0.150000X0.825000X-0.150000X-0.825000X0.150000X-0.825000X0.150000X0.825000X0*%
%ADD21RoundRect,0.070000X0.525000X-0.300000X0.525000X0.300000X-0.525000X0.300000X-0.525000X-0.300000X0*%
%ADD22RoundRect,0.150000X0.825000X0.150000X-0.825000X0.150000X-0.825000X-0.150000X0.825000X-0.150000X0*%
%ADD23R,1.400000X0.300000*%
%ADD24R,1.700000X1.700000*%
%ADD25O,1.700000X1.700000*%
%ADD26R,2.200000X2.200000*%
%ADD27O,2.200000X2.200000*%
%ADD28RoundRect,0.250000X-0.325000X-0.450000X0.325000X-0.450000X0.325000X0.450000X-0.325000X0.450000X0*%
%ADD29RoundRect,0.250000X0.337500X0.475000X-0.337500X0.475000X-0.337500X-0.475000X0.337500X-0.475000X0*%
%ADD30C,2.780000*%
%ADD31RoundRect,0.150000X0.150000X-0.512500X0.150000X0.512500X-0.150000X0.512500X-0.150000X-0.512500X0*%
%ADD32RoundRect,0.250000X-0.350000X-0.450000X0.350000X-0.450000X0.350000X0.450000X-0.350000X0.450000X0*%
%ADD33RoundRect,0.250000X0.475000X-0.337500X0.475000X0.337500X-0.475000X0.337500X-0.475000X-0.337500X0*%
%ADD34RoundRect,0.250000X0.350000X0.450000X-0.350000X0.450000X-0.350000X-0.450000X0.350000X-0.450000X0*%
%ADD35R,3.000000X3.000000*%
%ADD36C,3.000000*%
%ADD37RoundRect,0.250000X-0.600000X-0.725000X0.600000X-0.725000X0.600000X0.725000X-0.600000X0.725000X0*%
%ADD38O,1.700000X1.950000*%
%ADD39R,4.600000X1.100000*%
%ADD40R,9.400000X10.800000*%
%ADD41RoundRect,0.250001X-0.924999X0.499999X-0.924999X-0.499999X0.924999X-0.499999X0.924999X0.499999X0*%
%ADD42RoundRect,0.250000X-0.600000X-0.750000X0.600000X-0.750000X0.600000X0.750000X-0.600000X0.750000X0*%
%ADD43O,1.700000X2.000000*%
%ADD44RoundRect,0.250000X0.450000X-0.350000X0.450000X0.350000X-0.450000X0.350000X-0.450000X-0.350000X0*%
%ADD45C,6.000000*%
%ADD46RoundRect,0.250000X-0.337500X-0.475000X0.337500X-0.475000X0.337500X0.475000X-0.337500X0.475000X0*%
%ADD47RoundRect,0.100000X0.100000X-0.712500X0.100000X0.712500X-0.100000X0.712500X-0.100000X-0.712500X0*%
%ADD48R,4.000000X4.000000*%
%ADD49C,4.000000*%
G04 APERTURE END LIST*
D10*
%TO.C,D2*%
X81250000Y-126000000D03*
D11*
X68550000Y-126000000D03*
%TD*%
D12*
%TO.C,J3*%
X80298000Y-64080000D03*
X91423000Y-64080000D03*
%TD*%
D13*
%TO.C,Q1*%
X107430000Y-96040000D03*
D14*
X90770000Y-93500000D03*
D15*
X90770000Y-96040000D03*
X90770000Y-98580000D03*
%TD*%
D16*
%TO.C,H1*%
X157000000Y-141000000D03*
%TD*%
D17*
%TO.C,C4*%
X109600000Y-118112501D03*
X109600000Y-120187501D03*
%TD*%
D16*
%TO.C,H3*%
X157000000Y-51000000D03*
%TD*%
D17*
%TO.C,C11*%
X99000000Y-81712500D03*
X99000000Y-83787500D03*
%TD*%
D10*
%TO.C,D3*%
X72250000Y-98250000D03*
D11*
X84950000Y-98250000D03*
%TD*%
D18*
%TO.C,Q2*%
X77300000Y-103470000D03*
D19*
X83600000Y-105750000D03*
D18*
X77300000Y-108030000D03*
%TD*%
D10*
%TO.C,D4*%
X151350000Y-98250000D03*
D11*
X138650000Y-98250000D03*
%TD*%
D20*
%TO.C,U4*%
X72770000Y-103390000D03*
X71500000Y-103390000D03*
X70230000Y-103390000D03*
X68960000Y-103390000D03*
X68960000Y-108340000D03*
X70230000Y-108340000D03*
X71500000Y-108340000D03*
X72770000Y-108340000D03*
%TD*%
D21*
%TO.C,U3*%
X113200000Y-75762500D03*
X113200000Y-74812500D03*
X113200000Y-73862500D03*
X110500000Y-73862500D03*
X110500000Y-75762500D03*
%TD*%
D22*
%TO.C,IC1*%
X112475000Y-130655000D03*
X112475000Y-129385000D03*
X112475000Y-128115000D03*
X112475000Y-126845000D03*
X107525000Y-126845000D03*
X107525000Y-128115000D03*
X107525000Y-129385000D03*
X107525000Y-130655000D03*
%TD*%
D23*
%TO.C,IC2*%
X105950000Y-81250000D03*
X105950000Y-80750000D03*
X105950000Y-80250000D03*
X105950000Y-79750000D03*
X105950000Y-79250000D03*
X101550000Y-79250000D03*
X101550000Y-79750000D03*
X101550000Y-80250000D03*
X101550000Y-80750000D03*
X101550000Y-81250000D03*
%TD*%
D24*
%TO.C,J2*%
X113500000Y-108100000D03*
D25*
X113500000Y-110640000D03*
X113500000Y-113180000D03*
%TD*%
D26*
%TO.C,D7*%
X115750000Y-88500000D03*
D27*
X125910000Y-88500000D03*
%TD*%
D16*
%TO.C,H2*%
X67000000Y-51000000D03*
%TD*%
D17*
%TO.C,C2*%
X107500000Y-132712500D03*
X107500000Y-134787500D03*
%TD*%
D20*
%TO.C,U2*%
X107905000Y-59025000D03*
X106635000Y-59025000D03*
X105365000Y-59025000D03*
X104095000Y-59025000D03*
X104095000Y-63975000D03*
X105365000Y-63975000D03*
X106635000Y-63975000D03*
X107905000Y-63975000D03*
%TD*%
D28*
%TO.C,D6*%
X112725000Y-49250000D03*
X114775000Y-49250000D03*
%TD*%
D29*
%TO.C,C8*%
X108037500Y-67750000D03*
X105962500Y-67750000D03*
%TD*%
D20*
%TO.C,U5*%
X156905000Y-103275000D03*
X155635000Y-103275000D03*
X154365000Y-103275000D03*
X153095000Y-103275000D03*
X153095000Y-108225000D03*
X154365000Y-108225000D03*
X155635000Y-108225000D03*
X156905000Y-108225000D03*
%TD*%
D30*
%TO.C,F1*%
X66350000Y-58000000D03*
X69750000Y-58000000D03*
X69750000Y-67920000D03*
X66350000Y-67920000D03*
%TD*%
D14*
%TO.C,Q7*%
X121205000Y-123510000D03*
D15*
X121205000Y-126050000D03*
X121205000Y-128590000D03*
%TD*%
D17*
%TO.C,C5*%
X70250000Y-110512500D03*
X70250000Y-112587500D03*
%TD*%
D31*
%TO.C,U1*%
X111500000Y-118337500D03*
X112450000Y-118337500D03*
X113400000Y-118337500D03*
X113400000Y-116062500D03*
X112450000Y-116062500D03*
X111500000Y-116062500D03*
%TD*%
D32*
%TO.C,R3*%
X110500000Y-60500000D03*
X112500000Y-60500000D03*
%TD*%
%TO.C,R9*%
X117500000Y-56250000D03*
X119500000Y-56250000D03*
%TD*%
D33*
%TO.C,C3*%
X108250000Y-75787500D03*
X108250000Y-73712500D03*
%TD*%
D32*
%TO.C,R4*%
X110500000Y-62500000D03*
X112500000Y-62500000D03*
%TD*%
%TO.C,R1*%
X97000000Y-79250000D03*
X99000000Y-79250000D03*
%TD*%
D18*
%TO.C,Q5*%
X146300000Y-108030000D03*
D19*
X140000000Y-105750000D03*
D18*
X146300000Y-103470000D03*
%TD*%
D34*
%TO.C,R10*%
X124000000Y-56250000D03*
X122000000Y-56250000D03*
%TD*%
D35*
%TO.C,J1*%
X109420000Y-140750000D03*
D36*
X114500000Y-140750000D03*
%TD*%
D37*
%TO.C,J4*%
X119500000Y-51225000D03*
D38*
X122000000Y-51225000D03*
X124500000Y-51225000D03*
%TD*%
D14*
%TO.C,Q4*%
X94000000Y-123000000D03*
D15*
X94000000Y-125540000D03*
X94000000Y-128080000D03*
%TD*%
D16*
%TO.C,H4*%
X67000000Y-141000000D03*
%TD*%
D39*
%TO.C,Q8*%
X149900000Y-118290000D03*
D40*
X140750000Y-115750000D03*
D39*
X149900000Y-113210000D03*
%TD*%
D41*
%TO.C,C7*%
X106750000Y-118125001D03*
X106750000Y-121375001D03*
%TD*%
D42*
%TO.C,M1*%
X132000000Y-51250000D03*
D43*
X134500000Y-51250000D03*
%TD*%
D24*
%TO.C,J5*%
X103475000Y-84750000D03*
D25*
X106015000Y-84750000D03*
X108555000Y-84750000D03*
%TD*%
D10*
%TO.C,D5*%
X142650000Y-125000000D03*
D11*
X155350000Y-125000000D03*
%TD*%
D13*
%TO.C,Q6*%
X132430000Y-96040000D03*
D14*
X115770000Y-93500000D03*
D15*
X115770000Y-96040000D03*
X115770000Y-98580000D03*
%TD*%
D44*
%TO.C,R7*%
X108250000Y-53500000D03*
X108250000Y-51500000D03*
%TD*%
D45*
%TO.C,HS2*%
X125500000Y-113300000D03*
X125500000Y-138700000D03*
%TD*%
D26*
%TO.C,D1*%
X90750000Y-88500000D03*
D27*
X100910000Y-88500000D03*
%TD*%
D46*
%TO.C,C1*%
X107962500Y-56750000D03*
X110037500Y-56750000D03*
%TD*%
D32*
%TO.C,R5*%
X99250000Y-77250000D03*
X101250000Y-77250000D03*
%TD*%
D39*
%TO.C,Q3*%
X74100000Y-113460000D03*
D40*
X83250000Y-116000000D03*
D39*
X74100000Y-118540000D03*
%TD*%
D47*
%TO.C,IC3*%
X110025000Y-71612500D03*
X110675000Y-71612500D03*
X111325000Y-71612500D03*
X111975000Y-71612500D03*
X111975000Y-67387500D03*
X111325000Y-67387500D03*
X110675000Y-67387500D03*
X110025000Y-67387500D03*
%TD*%
D35*
%TO.C,R2*%
X82460000Y-141000000D03*
D36*
X87540000Y-141000000D03*
%TD*%
D48*
%TO.C,C9*%
X70842169Y-82000000D03*
D49*
X80842169Y-82000000D03*
%TD*%
D35*
%TO.C,R6*%
X136460000Y-141000000D03*
D36*
X141540000Y-141000000D03*
%TD*%
D28*
%TO.C,D8*%
X108225000Y-49250000D03*
X110275000Y-49250000D03*
%TD*%
D45*
%TO.C,HS1*%
X98249999Y-112800000D03*
X98249999Y-138200000D03*
%TD*%
D17*
%TO.C,C6*%
X154000000Y-110462500D03*
X154000000Y-112537500D03*
%TD*%
D24*
%TO.C,J6*%
X102225000Y-49975000D03*
D25*
X104765000Y-49975000D03*
X102225000Y-52515000D03*
X104765000Y-52515000D03*
X102225000Y-55055000D03*
X104765000Y-55055000D03*
%TD*%
M02*
