M48
; DRILL file {KiCad (6.0.6-1)-1} date Thursday, July 21, 2022 at 09:53:50 PM
; FORMAT={-:-/ absolute / metric / decimal}
; #@! TF.CreationDate,2022-07-21T21:53:50-04:00
; #@! TF.GenerationSoftware,Kicad,Pcbnew,(6.0.6-1)-1
; #@! TF.FileFunction,Plated,1,4,PTH
FMAT,2
METRIC
; #@! TA.AperFunction,Plated,PTH,ViaDrill
T1C0.400
; #@! TA.AperFunction,Plated,PTH,ComponentDrill
T2C0.950
; #@! TA.AperFunction,Plated,PTH,ComponentDrill
T3C1.000
; #@! TA.AperFunction,Plated,PTH,ComponentDrill
T4C1.100
; #@! TA.AperFunction,Plated,PTH,ComponentDrill
T5C1.520
; #@! TA.AperFunction,Plated,PTH,ComponentDrill
T6C1.600
; #@! TA.AperFunction,Plated,PTH,ComponentDrill
T7C1.780
; #@! TA.AperFunction,Plated,PTH,ComponentDrill
T8C1.854
; #@! TA.AperFunction,Plated,PTH,ComponentDrill
T9C2.000
; #@! TA.AperFunction,Plated,PTH,ComponentDrill
T10C2.500
; #@! TA.AperFunction,Plated,PTH,ComponentDrill
T11C3.200
%
G90
G05
T1
X65.0Y-65.0
X65.0Y-70.0
X65.0Y-72.5
X65.0Y-75.0
X65.0Y-77.5
X65.0Y-80.0
X65.0Y-82.5
X65.0Y-85.0
X65.0Y-87.5
X65.0Y-90.0
X65.5Y-123.0
X65.5Y-126.0
X65.5Y-129.0
X67.5Y-65.0
X67.5Y-70.0
X67.5Y-72.5
X67.5Y-75.0
X67.5Y-77.5
X67.5Y-80.0
X67.5Y-82.5
X67.5Y-85.0
X67.5Y-87.5
X67.5Y-90.0
X68.5Y-115.5
X68.5Y-121.5
X68.5Y-123.0
X68.5Y-129.0
X69.0Y-117.5
X69.0Y-119.5
X69.8Y-95.6
X69.8Y-98.2
X70.0Y-65.0
X70.0Y-72.5
X70.0Y-75.0
X70.0Y-77.5
X70.0Y-85.0
X70.0Y-87.5
X70.0Y-90.0
X70.0Y-116.5
X70.0Y-120.5
X70.25Y-101.8
X71.5Y-111.9
X71.5Y-123.0
X71.5Y-126.0
X71.5Y-129.0
X71.6Y-110.8
X72.0Y-116.5
X72.0Y-120.5
X72.25Y-95.5
X72.25Y-101.0
X72.5Y-50.0
X72.5Y-52.5
X72.5Y-55.0
X72.5Y-57.5
X72.5Y-60.0
X72.5Y-62.5
X72.5Y-67.5
X72.5Y-70.0
X72.5Y-72.5
X72.5Y-75.0
X72.5Y-77.5
X72.5Y-85.0
X72.5Y-87.5
X72.5Y-90.0
X74.0Y-116.5
X74.0Y-120.5
X75.0Y-50.0
X75.0Y-52.5
X75.0Y-55.0
X75.0Y-57.5
X75.0Y-60.0
X75.0Y-62.5
X75.0Y-65.0
X75.0Y-95.5
X75.0Y-98.25
X75.0Y-125.0
X75.0Y-127.5
X75.0Y-130.0
X75.0Y-132.5
X75.0Y-135.0
X75.0Y-137.5
X75.0Y-140.0
X75.0Y-142.5
X75.5Y-105.0
X75.5Y-106.5
X76.0Y-115.5
X76.0Y-121.5
X77.0Y-105.0
X77.0Y-106.5
X77.5Y-50.0
X77.5Y-52.5
X77.5Y-55.0
X77.5Y-57.5
X77.5Y-60.0
X77.5Y-62.5
X77.5Y-65.0
X77.5Y-67.5
X77.5Y-70.0
X77.5Y-75.0
X77.5Y-77.5
X77.5Y-80.0
X77.5Y-82.5
X77.5Y-85.0
X77.5Y-122.5
X77.5Y-125.0
X77.5Y-127.5
X77.5Y-130.0
X77.5Y-132.5
X77.5Y-135.0
X77.5Y-137.5
X77.5Y-140.0
X77.5Y-142.5
X78.5Y-105.0
X78.5Y-106.5
X80.0Y-50.0
X80.0Y-52.5
X80.0Y-55.0
X80.0Y-57.5
X80.0Y-60.0
X80.0Y-67.5
X80.0Y-70.0
X80.0Y-75.0
X80.0Y-77.5
X80.0Y-85.0
X80.0Y-122.5
X80.0Y-130.0
X80.0Y-132.5
X80.0Y-135.0
X80.0Y-137.5
X82.5Y-50.0
X82.5Y-52.5
X82.5Y-55.0
X82.5Y-57.5
X82.5Y-60.0
X82.5Y-62.5
X82.5Y-65.0
X82.5Y-67.5
X82.5Y-75.0
X82.5Y-77.5
X82.5Y-85.0
X82.5Y-122.5
X82.5Y-130.0
X82.5Y-132.5
X82.5Y-135.0
X82.5Y-137.5
X85.0Y-50.0
X85.0Y-52.5
X85.0Y-55.0
X85.0Y-57.5
X85.0Y-60.0
X85.0Y-62.5
X85.0Y-65.0
X85.0Y-72.5
X85.0Y-75.0
X85.0Y-77.5
X85.0Y-80.0
X85.0Y-82.5
X85.0Y-122.5
X85.0Y-125.0
X85.0Y-127.5
X87.5Y-70.0
X87.5Y-72.5
X87.5Y-75.0
X87.5Y-77.5
X87.5Y-80.0
X87.5Y-122.5
X87.5Y-125.0
X87.5Y-130.0
X87.5Y-132.5
X87.5Y-135.0
X87.5Y-137.5
X90.0Y-50.0
X90.0Y-52.5
X90.0Y-55.0
X90.0Y-57.5
X90.0Y-60.0
X90.0Y-67.5
X90.0Y-70.0
X90.0Y-72.5
X90.0Y-75.0
X90.0Y-77.5
X90.0Y-107.5
X90.0Y-127.5
X90.0Y-130.0
X90.0Y-132.5
X90.0Y-135.0
X90.0Y-137.5
X90.0Y-140.0
X90.0Y-142.5
X92.5Y-50.0
X92.5Y-52.5
X92.5Y-55.0
X92.5Y-57.5
X92.5Y-60.0
X92.5Y-67.5
X92.5Y-70.0
X92.5Y-72.5
X92.5Y-75.0
X92.5Y-130.0
X92.5Y-132.5
X92.5Y-135.0
X92.5Y-137.5
X92.5Y-140.0
X92.5Y-142.5
X95.0Y-50.0
X95.0Y-52.5
X95.0Y-55.0
X95.0Y-57.5
X95.0Y-60.0
X95.0Y-62.5
X95.0Y-65.0
X95.0Y-67.5
X95.0Y-70.0
X95.0Y-72.5
X95.0Y-97.5
X95.0Y-100.0
X95.0Y-102.5
X95.0Y-105.0
X95.0Y-130.0
X95.0Y-132.5
X95.0Y-135.0
X95.0Y-142.5
X95.75Y-79.25
X97.5Y-50.0
X97.5Y-52.5
X97.5Y-55.0
X97.5Y-57.5
X97.5Y-60.0
X97.5Y-62.5
X97.5Y-65.0
X97.5Y-67.5
X97.5Y-70.0
X97.5Y-81.75
X97.5Y-83.75
X97.5Y-97.5
X97.5Y-100.0
X97.5Y-102.5
X97.5Y-105.0
X97.5Y-107.5
X97.5Y-117.5
X97.5Y-120.0
X97.5Y-122.5
X97.5Y-125.0
X97.5Y-127.5
X97.5Y-130.0
X97.5Y-132.5
X97.5Y-142.5
X98.0Y-77.25
X100.0Y-97.5
X100.0Y-100.0
X100.0Y-102.5
X100.0Y-105.0
X100.0Y-107.5
X100.0Y-117.5
X100.0Y-120.0
X100.0Y-122.5
X100.0Y-125.0
X100.0Y-127.5
X100.0Y-130.0
X100.0Y-132.5
X100.0Y-142.5
X100.012Y-80.474
X102.5Y-97.5
X102.5Y-100.0
X102.5Y-102.5
X102.5Y-105.0
X102.5Y-107.5
X102.5Y-110.0
X102.5Y-112.5
X102.5Y-115.0
X102.5Y-117.5
X102.5Y-120.0
X102.5Y-122.5
X102.5Y-125.0
X102.5Y-127.5
X102.5Y-130.0
X102.5Y-132.5
X102.5Y-135.0
X102.5Y-137.5
X102.5Y-140.0
X102.5Y-142.5
X104.25Y-60.75
X104.25Y-80.0
X104.25Y-81.0
X105.0Y-137.5
X105.0Y-140.0
X105.0Y-142.5
X105.95Y-69.0
X106.1Y-132.7
X106.1Y-134.8
X106.75Y-56.75
X106.75Y-65.525
X106.75Y-75.75
X106.75Y-119.8
X106.85Y-116.75
X107.5Y-125.75
X107.5Y-137.5
X107.693Y-79.807
X108.05Y-69.25
X108.25Y-54.75
X108.3Y-72.5
X108.839Y-70.428
X108.85Y-63.95
X109.75Y-121.4
X110.0Y-137.5
X110.25Y-50.75
X111.25Y-56.75
X112.45Y-119.338
X112.5Y-125.0
X112.5Y-132.5
X112.8Y-71.6
X114.0Y-62.5
X114.35Y-73.812
X114.75Y-50.75
X115.0Y-122.5
X115.0Y-125.0
X115.0Y-127.5
X115.0Y-130.0
X115.0Y-132.5
X115.0Y-135.0
X115.0Y-137.5
X115.075Y-75.425
X116.2Y-56.25
X117.5Y-122.5
X117.5Y-125.0
X117.5Y-127.5
X117.5Y-130.0
X117.5Y-132.5
X117.5Y-135.0
X117.5Y-137.5
X117.5Y-140.0
X117.5Y-142.5
X118.2Y-81.0
X118.7Y-79.1
X119.5Y-57.5
X120.0Y-97.5
X120.0Y-100.0
X120.0Y-102.5
X120.0Y-105.0
X120.0Y-107.5
X120.0Y-110.0
X120.0Y-112.5
X120.0Y-115.0
X120.0Y-117.5
X122.0Y-54.75
X122.5Y-97.5
X122.5Y-100.0
X122.5Y-102.5
X122.5Y-105.0
X122.5Y-107.5
X122.5Y-110.0
X122.5Y-117.5
X122.5Y-120.0
X122.5Y-142.5
X125.0Y-97.5
X125.0Y-100.0
X125.0Y-102.5
X125.0Y-105.0
X125.0Y-107.5
X125.0Y-117.5
X125.0Y-120.0
X125.25Y-56.25
X127.5Y-97.5
X127.5Y-100.0
X127.5Y-102.5
X127.5Y-105.0
X127.5Y-107.5
X127.5Y-117.5
X127.5Y-120.0
X127.5Y-122.5
X127.5Y-142.5
X130.0Y-97.5
X130.0Y-100.0
X130.0Y-102.5
X130.0Y-105.0
X130.0Y-107.5
X130.0Y-110.0
X130.0Y-112.5
X130.0Y-115.0
X130.0Y-117.5
X130.0Y-120.0
X130.0Y-122.5
X130.0Y-125.0
X130.0Y-130.0
X130.0Y-132.5
X130.0Y-135.0
X130.0Y-137.5
X130.0Y-140.0
X130.0Y-142.5
X132.5Y-100.0
X132.5Y-102.5
X132.5Y-105.0
X132.5Y-107.5
X132.5Y-110.0
X132.5Y-112.5
X132.5Y-115.0
X132.5Y-117.5
X132.5Y-120.0
X132.5Y-122.5
X132.5Y-125.0
X132.5Y-130.0
X132.5Y-132.5
X132.5Y-135.0
X132.5Y-137.5
X132.5Y-140.0
X132.5Y-142.5
X135.0Y-97.5
X135.0Y-100.0
X135.0Y-102.5
X135.0Y-105.0
X135.0Y-107.5
X135.0Y-122.5
X135.0Y-125.0
X135.0Y-130.0
X135.0Y-132.5
X135.0Y-135.0
X135.0Y-137.5
X137.5Y-122.5
X137.5Y-125.0
X137.5Y-127.5
X137.5Y-132.5
X137.5Y-135.0
X137.5Y-137.5
X140.0Y-122.5
X140.0Y-125.0
X140.0Y-127.5
X140.0Y-130.0
X140.0Y-132.5
X140.0Y-135.0
X140.0Y-137.5
X142.5Y-97.5
X142.5Y-100.0
X142.5Y-122.5
X142.5Y-127.5
X142.5Y-130.0
X142.5Y-132.5
X142.5Y-135.0
X142.5Y-137.5
X145.0Y-122.5
X145.0Y-125.0
X145.0Y-127.5
X145.0Y-130.0
X145.0Y-132.5
X145.0Y-135.0
X145.0Y-137.5
X145.0Y-140.0
X145.0Y-142.5
X145.5Y-101.5
X145.5Y-105.5
X147.5Y-101.5
X147.5Y-105.5
X147.5Y-120.0
X147.5Y-122.5
X147.5Y-125.0
X147.5Y-127.5
X147.5Y-130.0
X147.5Y-132.5
X147.5Y-135.0
X147.5Y-137.5
X147.5Y-140.0
X147.5Y-142.5
X148.4Y-95.2
X148.4Y-97.6
X148.4Y-99.8
X149.0Y-110.0
X149.0Y-116.0
X149.5Y-101.5
X149.5Y-103.5
X149.5Y-105.5
X150.0Y-111.0
X150.0Y-115.0
X150.4Y-95.2
X151.0Y-110.0
X151.0Y-116.0
X152.2Y-95.2
X152.25Y-122.0
X152.25Y-125.0
X152.25Y-128.0
X152.6Y-110.5
X154.0Y-113.75
X154.4Y-101.6
X155.25Y-122.0
X155.25Y-128.0
X158.25Y-122.0
X158.25Y-125.0
X158.25Y-128.0
T2
X119.5Y-51.225
X122.0Y-51.225
X124.5Y-51.225
T3
X102.225Y-49.975
X102.225Y-52.515
X102.225Y-55.055
X103.475Y-84.75
X104.765Y-49.975
X104.765Y-52.515
X104.765Y-55.055
X106.015Y-84.75
X108.555Y-84.75
X113.5Y-108.1
X113.5Y-110.64
X113.5Y-113.18
X132.0Y-51.25
X134.5Y-51.25
T4
X90.75Y-88.5
X90.77Y-93.5
X90.77Y-96.04
X90.77Y-98.58
X94.0Y-123.0
X94.0Y-125.54
X94.0Y-128.08
X100.91Y-88.5
X115.75Y-88.5
X115.77Y-93.5
X115.77Y-96.04
X115.77Y-98.58
X121.205Y-123.51
X121.205Y-126.05
X121.205Y-128.59
X125.91Y-88.5
T5
X82.46Y-141.0
X87.54Y-141.0
X109.42Y-140.75
X114.5Y-140.75
X136.46Y-141.0
X141.54Y-141.0
T6
X68.55Y-126.0
X72.25Y-98.25
X81.25Y-126.0
X84.95Y-98.25
X138.65Y-98.25
X142.65Y-125.0
X151.35Y-98.25
X155.35Y-125.0
T7
X66.35Y-58.0
X66.35Y-67.92
X69.75Y-58.0
X69.75Y-67.92
T8
X80.298Y-64.08
X91.423Y-64.08
T9
X70.842Y-82.0
X80.842Y-82.0
T10
X98.25Y-112.8
X98.25Y-138.2
X125.5Y-113.3
X125.5Y-138.7
T11
X67.0Y-51.0
X67.0Y-141.0
X157.0Y-51.0
X157.0Y-141.0
T0
M30
