%TF.GenerationSoftware,KiCad,Pcbnew,(6.0.6-1)-1*%
%TF.CreationDate,2022-07-21T21:53:33-04:00*%
%TF.ProjectId,iGEM,6947454d-2e6b-4696-9361-645f70636258,rev?*%
%TF.SameCoordinates,Original*%
%TF.FileFunction,Soldermask,Bot*%
%TF.FilePolarity,Negative*%
%FSLAX46Y46*%
G04 Gerber Fmt 4.6, Leading zero omitted, Abs format (unit mm)*
G04 Created by KiCad (PCBNEW (6.0.6-1)-1) date 2022-07-21 21:53:33*
%MOMM*%
%LPD*%
G01*
G04 APERTURE LIST*
G04 Aperture macros list*
%AMRoundRect*
0 Rectangle with rounded corners*
0 $1 Rounding radius*
0 $2 $3 $4 $5 $6 $7 $8 $9 X,Y pos of 4 corners*
0 Add a 4 corners polygon primitive as box body*
4,1,4,$2,$3,$4,$5,$6,$7,$8,$9,$2,$3,0*
0 Add four circle primitives for the rounded corners*
1,1,$1+$1,$2,$3*
1,1,$1+$1,$4,$5*
1,1,$1+$1,$6,$7*
1,1,$1+$1,$8,$9*
0 Add four rect primitives between the rounded corners*
20,1,$1+$1,$2,$3,$4,$5,0*
20,1,$1+$1,$4,$5,$6,$7,0*
20,1,$1+$1,$6,$7,$8,$9,0*
20,1,$1+$1,$8,$9,$2,$3,0*%
G04 Aperture macros list end*
%ADD10R,3.200000X3.200000*%
%ADD11O,3.200000X3.200000*%
%ADD12C,2.781000*%
%ADD13O,3.500000X3.500000*%
%ADD14R,2.000000X1.905000*%
%ADD15O,2.000000X1.905000*%
%ADD16C,5.600000*%
%ADD17R,1.700000X1.700000*%
%ADD18O,1.700000X1.700000*%
%ADD19R,2.200000X2.200000*%
%ADD20O,2.200000X2.200000*%
%ADD21C,2.780000*%
%ADD22R,3.000000X3.000000*%
%ADD23C,3.000000*%
%ADD24RoundRect,0.250000X-0.600000X-0.725000X0.600000X-0.725000X0.600000X0.725000X-0.600000X0.725000X0*%
%ADD25O,1.700000X1.950000*%
%ADD26RoundRect,0.250000X-0.600000X-0.750000X0.600000X-0.750000X0.600000X0.750000X-0.600000X0.750000X0*%
%ADD27O,1.700000X2.000000*%
%ADD28C,6.000000*%
%ADD29R,4.000000X4.000000*%
%ADD30C,4.000000*%
G04 APERTURE END LIST*
D10*
%TO.C,D2*%
X81250000Y-126000000D03*
D11*
X68550000Y-126000000D03*
%TD*%
D12*
%TO.C,J3*%
X80298000Y-64080000D03*
X91423000Y-64080000D03*
%TD*%
D13*
%TO.C,Q1*%
X107430000Y-96040000D03*
D14*
X90770000Y-93500000D03*
D15*
X90770000Y-96040000D03*
X90770000Y-98580000D03*
%TD*%
D16*
%TO.C,H1*%
X157000000Y-141000000D03*
%TD*%
%TO.C,H3*%
X157000000Y-51000000D03*
%TD*%
D10*
%TO.C,D3*%
X72250000Y-98250000D03*
D11*
X84950000Y-98250000D03*
%TD*%
D10*
%TO.C,D4*%
X151350000Y-98250000D03*
D11*
X138650000Y-98250000D03*
%TD*%
D17*
%TO.C,J2*%
X113500000Y-108100000D03*
D18*
X113500000Y-110640000D03*
X113500000Y-113180000D03*
%TD*%
D19*
%TO.C,D7*%
X115750000Y-88500000D03*
D20*
X125910000Y-88500000D03*
%TD*%
D16*
%TO.C,H2*%
X67000000Y-51000000D03*
%TD*%
D21*
%TO.C,F1*%
X66350000Y-58000000D03*
X69750000Y-58000000D03*
X69750000Y-67920000D03*
X66350000Y-67920000D03*
%TD*%
D14*
%TO.C,Q7*%
X121205000Y-123510000D03*
D15*
X121205000Y-126050000D03*
X121205000Y-128590000D03*
%TD*%
D22*
%TO.C,J1*%
X109420000Y-140750000D03*
D23*
X114500000Y-140750000D03*
%TD*%
D24*
%TO.C,J4*%
X119500000Y-51225000D03*
D25*
X122000000Y-51225000D03*
X124500000Y-51225000D03*
%TD*%
D14*
%TO.C,Q4*%
X94000000Y-123000000D03*
D15*
X94000000Y-125540000D03*
X94000000Y-128080000D03*
%TD*%
D16*
%TO.C,H4*%
X67000000Y-141000000D03*
%TD*%
D26*
%TO.C,M1*%
X132000000Y-51250000D03*
D27*
X134500000Y-51250000D03*
%TD*%
D17*
%TO.C,J5*%
X103475000Y-84750000D03*
D18*
X106015000Y-84750000D03*
X108555000Y-84750000D03*
%TD*%
D10*
%TO.C,D5*%
X142650000Y-125000000D03*
D11*
X155350000Y-125000000D03*
%TD*%
D13*
%TO.C,Q6*%
X132430000Y-96040000D03*
D14*
X115770000Y-93500000D03*
D15*
X115770000Y-96040000D03*
X115770000Y-98580000D03*
%TD*%
D28*
%TO.C,HS2*%
X125500000Y-113300000D03*
X125500000Y-138700000D03*
%TD*%
D19*
%TO.C,D1*%
X90750000Y-88500000D03*
D20*
X100910000Y-88500000D03*
%TD*%
D22*
%TO.C,R2*%
X82460000Y-141000000D03*
D23*
X87540000Y-141000000D03*
%TD*%
D29*
%TO.C,C9*%
X70842169Y-82000000D03*
D30*
X80842169Y-82000000D03*
%TD*%
D22*
%TO.C,R6*%
X136460000Y-141000000D03*
D23*
X141540000Y-141000000D03*
%TD*%
D28*
%TO.C,HS1*%
X98249999Y-112800000D03*
X98249999Y-138200000D03*
%TD*%
D17*
%TO.C,J6*%
X102225000Y-49975000D03*
D18*
X104765000Y-49975000D03*
X102225000Y-52515000D03*
X104765000Y-52515000D03*
X102225000Y-55055000D03*
X104765000Y-55055000D03*
%TD*%
M02*
